# xmcd
#
# Track frame offsets:
#	182
#	39055
#	70115
#	93882
#	127662
#	146840
#	164060
#	181722
#	200485
#	233712
#
# Disc length: 3331 seconds
#
# Revision: 0
# Processed by: cddbd v1.5.2PL0 Copyright (c) Steve Scherf et al.
# Submitted via: EasyCDDAExtractor 10.0.5.1
#
DISCID=7b0d010a
DTITLE=the fantastic four - back in circulaiton
DYEAR=1991
DGENRE=Funk
TTITLE0=all you have to do is call
TTITLE1=back in circulation
TTITLE2=you'll be sorry
TTITLE3=sign here on the dotted line
TTITLE4=i've been fallen and i can't get up
TTITLE5=sidestepping
TTITLE6=night time is the right time
TTITLE7=lying in the name of love
TTITLE8=working on a building of love
TTITLE9=ain't noc soul left in these old shoes
EXTD=
EXTT0=
EXTT1=
EXTT2=
EXTT3=
EXTT4=
EXTT5=
EXTT6=
EXTT7=
EXTT8=
EXTT9=
PLAYORDER=
